<mxfile host="app.diagrams.net" modified="2021-03-14T12:11:59.835Z" agent="5.0 (Windows NT 10.0; Win64; x64) AppleWebKit/537.36 (KHTML, like Gecko) Chrome/89.0.4389.82 Safari/537.36" etag="WO6R43CXirlT2YqyuEt4" version="14.4.8" type="github">
  <diagram id="hjqWjjy4UFWNLnNpnDUC" name="Page-1">
    <mxGraphModel dx="1038" dy="548" grid="1" gridSize="10" guides="1" tooltips="1" connect="1" arrows="1" fold="1" page="1" pageScale="1" pageWidth="850" pageHeight="1100" math="0" shadow="0">
      <root>
        <mxCell id="0" />
        <mxCell id="1" parent="0" />
        <mxCell id="ExkXCo3UjG2ohsLDCub5-15" value="Teleportkapu aszteroidÃ¡ja felrobban" style="shape=umlFrame;whiteSpace=wrap;html=1;width=130;height=50;" vertex="1" parent="1">
          <mxGeometry x="10" y="20" width="600" height="430" as="geometry" />
        </mxCell>
        <mxCell id="ExkXCo3UjG2ohsLDCub5-1" value="Controller" style="html=1;" vertex="1" parent="1">
          <mxGeometry x="40" y="190" width="110" height="50" as="geometry" />
        </mxCell>
        <mxCell id="ExkXCo3UjG2ohsLDCub5-2" value="tp: Teleportkapu" style="html=1;" vertex="1" parent="1">
          <mxGeometry x="460" y="40" width="110" height="50" as="geometry" />
        </mxCell>
        <mxCell id="ExkXCo3UjG2ohsLDCub5-3" value="par: Teleportkapu" style="html=1;" vertex="1" parent="1">
          <mxGeometry x="470" y="230" width="110" height="50" as="geometry" />
        </mxCell>
        <mxCell id="ExkXCo3UjG2ohsLDCub5-4" value="sajatAszteroida: Aszteroida" style="html=1;" vertex="1" parent="1">
          <mxGeometry x="240" y="380" width="160" height="50" as="geometry" />
        </mxCell>
        <mxCell id="ExkXCo3UjG2ohsLDCub5-5" value="" style="endArrow=none;html=1;" edge="1" parent="1" source="ExkXCo3UjG2ohsLDCub5-1" target="ExkXCo3UjG2ohsLDCub5-4">
          <mxGeometry width="50" height="50" relative="1" as="geometry">
            <mxPoint x="400" y="310" as="sourcePoint" />
            <mxPoint x="450" y="260" as="targetPoint" />
          </mxGeometry>
        </mxCell>
        <mxCell id="ExkXCo3UjG2ohsLDCub5-6" value="" style="endArrow=none;html=1;" edge="1" parent="1" source="ExkXCo3UjG2ohsLDCub5-1" target="ExkXCo3UjG2ohsLDCub5-3">
          <mxGeometry width="50" height="50" relative="1" as="geometry">
            <mxPoint x="138.36956521739125" y="220" as="sourcePoint" />
            <mxPoint x="306.63043478260875" y="400" as="targetPoint" />
          </mxGeometry>
        </mxCell>
        <mxCell id="ExkXCo3UjG2ohsLDCub5-7" value="" style="endArrow=none;html=1;" edge="1" parent="1" source="ExkXCo3UjG2ohsLDCub5-1" target="ExkXCo3UjG2ohsLDCub5-2">
          <mxGeometry width="50" height="50" relative="1" as="geometry">
            <mxPoint x="148.36956521739125" y="230" as="sourcePoint" />
            <mxPoint x="316.63043478260875" y="410" as="targetPoint" />
          </mxGeometry>
        </mxCell>
        <mxCell id="ExkXCo3UjG2ohsLDCub5-8" value="1: &amp;lt;&amp;lt;create&amp;gt;&amp;gt; Teleportkapu()" style="html=1;verticalAlign=bottom;endArrow=block;" edge="1" parent="1">
          <mxGeometry x="-0.8" y="19" width="80" relative="1" as="geometry">
            <mxPoint x="170" y="170" as="sourcePoint" />
            <mxPoint x="230" y="150" as="targetPoint" />
            <mxPoint as="offset" />
          </mxGeometry>
        </mxCell>
        <mxCell id="ExkXCo3UjG2ohsLDCub5-9" value="2: &amp;lt;&amp;lt;create&amp;gt;&amp;gt; Teleportkapu()" style="html=1;verticalAlign=bottom;endArrow=block;" edge="1" parent="1">
          <mxGeometry x="0.3171" y="7" width="80" relative="1" as="geometry">
            <mxPoint x="200" y="210" as="sourcePoint" />
            <mxPoint x="300" y="220" as="targetPoint" />
            <mxPoint as="offset" />
          </mxGeometry>
        </mxCell>
        <mxCell id="ExkXCo3UjG2ohsLDCub5-10" value="3: &amp;lt;&amp;lt;create&amp;gt;&amp;gt; Asztreoida()" style="html=1;verticalAlign=bottom;endArrow=block;" edge="1" parent="1">
          <mxGeometry x="0.7176" y="15" width="80" relative="1" as="geometry">
            <mxPoint x="160" y="250" as="sourcePoint" />
            <mxPoint x="230" y="310" as="targetPoint" />
            <mxPoint as="offset" />
          </mxGeometry>
        </mxCell>
        <mxCell id="ExkXCo3UjG2ohsLDCub5-11" value="4: SetPar(par)" style="html=1;verticalAlign=bottom;endArrow=block;" edge="1" parent="1">
          <mxGeometry x="-0.6" y="6" width="80" relative="1" as="geometry">
            <mxPoint x="270" y="130" as="sourcePoint" />
            <mxPoint x="330" y="110" as="targetPoint" />
            <mxPoint as="offset" />
          </mxGeometry>
        </mxCell>
        <mxCell id="ExkXCo3UjG2ohsLDCub5-12" value="5: SetPar(tp)" style="html=1;verticalAlign=bottom;endArrow=block;" edge="1" parent="1">
          <mxGeometry x="-0.0154" y="5" width="80" relative="1" as="geometry">
            <mxPoint x="350" y="220" as="sourcePoint" />
            <mxPoint x="430" y="230" as="targetPoint" />
            <mxPoint as="offset" />
          </mxGeometry>
        </mxCell>
        <mxCell id="ExkXCo3UjG2ohsLDCub5-13" value="6: AddSzomszed(tp)" style="html=1;verticalAlign=bottom;endArrow=block;" edge="1" parent="1">
          <mxGeometry x="0.8689" y="22" width="80" relative="1" as="geometry">
            <mxPoint x="250" y="320" as="sourcePoint" />
            <mxPoint x="310" y="370" as="targetPoint" />
            <mxPoint as="offset" />
          </mxGeometry>
        </mxCell>
        <mxCell id="ExkXCo3UjG2ohsLDCub5-14" value="7: SetSajatAszteroida(sajatAszteroida)" style="html=1;verticalAlign=bottom;endArrow=block;" edge="1" parent="1">
          <mxGeometry x="-1" y="25" width="80" relative="1" as="geometry">
            <mxPoint x="365" y="90" as="sourcePoint" />
            <mxPoint x="425" y="70" as="targetPoint" />
            <mxPoint x="-7" y="4" as="offset" />
          </mxGeometry>
        </mxCell>
      </root>
    </mxGraphModel>
  </diagram>
</mxfile>
